<svg xmlns="http://www.w3.org/2000/svg" width="31.5" height="36" viewBox="0 0 31.5 36"><path d="M0,32.625A3.376,3.376,0,0,0,3.375,36h24.75A3.376,3.376,0,0,0,31.5,32.625V13.5H0ZM22.5,18.844A.846.846,0,0,1,23.344,18h2.813a.846.846,0,0,1,.844.844v2.813a.846.846,0,0,1-.844.844H23.344a.846.846,0,0,1-.844-.844Zm0,9A.846.846,0,0,1,23.344,27h2.813a.846.846,0,0,1,.844.844v2.813a.846.846,0,0,1-.844.844H23.344a.846.846,0,0,1-.844-.844Zm-9-9A.846.846,0,0,1,14.344,18h2.813a.846.846,0,0,1,.844.844v2.813a.846.846,0,0,1-.844.844H14.344a.846.846,0,0,1-.844-.844Zm0,9A.846.846,0,0,1,14.344,27h2.813a.846.846,0,0,1,.844.844v2.813a.846.846,0,0,1-.844.844H14.344a.846.846,0,0,1-.844-.844Zm-9-9A.846.846,0,0,1,5.344,18H8.156A.846.846,0,0,1,9,18.844v2.813a.846.846,0,0,1-.844.844H5.344a.846.846,0,0,1-.844-.844Zm0,9A.846.846,0,0,1,5.344,27H8.156A.846.846,0,0,1,9,27.844v2.813a.846.846,0,0,1-.844.844H5.344a.846.846,0,0,1-.844-.844ZM28.125,4.5H24.75V1.125A1.128,1.128,0,0,0,23.625,0h-2.25A1.128,1.128,0,0,0,20.25,1.125V4.5h-9V1.125A1.128,1.128,0,0,0,10.125,0H7.875A1.128,1.128,0,0,0,6.75,1.125V4.5H3.375A3.376,3.376,0,0,0,0,7.875V11.25H31.5V7.875A3.376,3.376,0,0,0,28.125,4.5Z"/></svg>