<svg xmlns="http://www.w3.org/2000/svg" width="43.243" height="72.086" viewBox="0 0 43.243 72.086"><path d="M145.226,12.615h0a90.056,90.056,0,0,0-1.433-9.052A4.505,4.505,0,0,0,139.382,0H108.739a4.506,4.506,0,0,0-4.407,3.564,90.046,90.046,0,0,0-1.433,9.051h0c-.86,8.039-.8,18.182,2.775,27.032a46.65,46.65,0,0,1,2.172,27.017,4.505,4.505,0,0,0,4.4,5.422h23.619a4.505,4.505,0,0,0,4.41-5.422,46.638,46.638,0,0,1,2.172-27.017C146.025,30.8,146.087,20.654,145.226,12.615ZM107.857,4.308a.89.89,0,0,1,.88-.7h30.645a.89.89,0,0,1,.88.7c.431,2.037.96,4.928,1.335,8.307H106.524c.375-3.375.9-6.267,1.335-8.3ZM139.113,38.3A50.173,50.173,0,0,0,136.756,67.4a.862.862,0,0,1-.179.741.879.879,0,0,1-.7.334H112.25a.879.879,0,0,1-.7-.334.86.86,0,0,1-.179-.741A50.175,50.175,0,0,0,109.009,38.3c-2.41-5.97-3.369-13.551-2.816-22.079h35.728c.559,8.529-.4,16.111-2.812,22.079Z" transform="translate(-102.441)" fill="#3b3b3b"/></svg>